# Exported from Wings 3D 1.5.3
mtllib super_flat.mtl
o Dust
#9 vertices, 8 faces
v -1.00000000 0.0000000e+0 0.0000000e+0
v -1.00000000 -1.00000000 0.0000000e+0
v 0.0000000e+0 0.0000000e+0 0.0000000e+0
v -1.00000000 1.00000000 0.0000000e+0
v 0.0000000e+0 1.00000000 0.0000000e+0
v 1.00000000 1.00000000 0.0000000e+0
v 1.00000000 0.0000000e+0 0.0000000e+0
v 1.00000000 -1.00000000 0.0000000e+0
v 0.0000000e+0 -1.00000000 0.0000000e+0
vt 0.0000000e+0 0.50000000
vt 0.0000000e+0 1.00000000
vt 0.0000000e+0 0.0000000e+0
vt 0.50000000 0.50000000
vt 0.50000000 0.0000000e+0
vt 0.50000000 1.00000000
vt 1.00000000 0.0000000e+0
vt 1.00000000 1.00000000
vt 1.00000000 0.50000000
vn 0.0000000e+0 0.0000000e+0 1.00000000
vn 0.0000000e+0 0.0000000e+0 1.00000000
vn 0.0000000e+0 0.0000000e+0 1.00000000
vn 0.0000000e+0 0.0000000e+0 1.00000000
vn 0.0000000e+0 0.0000000e+0 1.00000000
vn 0.0000000e+0 0.0000000e+0 1.00000000
vn 0.0000000e+0 0.0000000e+0 1.00000000
vn 0.0000000e+0 0.0000000e+0 1.00000000
vn 0.0000000e+0 0.0000000e+0 1.00000000
g Dust_Dust
usemtl Dust
s 1
f 2/3/2 3/4/3 1/1/1
f 2/3/2 9/5/9 3/4/3
f 3/4/3 4/2/4 1/1/1
f 3/4/3 5/6/5 4/2/4
f 3/4/3 6/8/6 5/6/5
f 3/4/3 7/9/7 6/8/6
f 3/4/3 8/7/8 7/9/7
f 3/4/3 9/5/9 8/7/8
